<?xml version="1.0" encoding="utf-8"?>
<!-- Generator: Adobe Illustrator 16.0.0, SVG Export Plug-In . SVG Version: 6.00 Build 0)  -->
<!DOCTYPE svg PUBLIC "-//W3C//DTD SVG 1.1//EN" "http://www.w3.org/Graphics/SVG/1.1/DTD/svg11.dtd">
<svg version="1.1" id="Layer_1" xmlns="http://www.w3.org/2000/svg" xmlns:xlink="http://www.w3.org/1999/xlink" x="0px" y="0px"
	 width="450.974px" height="89.266px" viewBox="80.516 341.484 450.974 89.266"
	 enable-background="new 80.516 341.484 450.974 89.266" xml:space="preserve">
<title>logos_finales</title>
<path fill="#000000" d="M80.516,365.301h9.521l0.832-14.283h12.855v14.283h13.687v10.474h-13.687v39.525
	c0,1.912,1.071,2.381,2.142,2.381h11.545v11.306h-16.068c-7.14,0-11.306-4.52-11.306-13.805v-39.423h-9.521V365.301z
	 M154.546,363.752c17.614,0,28.923,13.33,28.923,31.557v7.617h-47.251c1.071,9.047,9.521,15.355,20.113,15.355
	c7.969,0,13.687-4.166,17.85-8.451l8.096,8.064c-6.901,8.689-16.661,12.855-26.899,12.855c-16.661,0-32.611-12.023-32.611-33.09
	c0-18.924,14.044-33.921,31.779-33.921 M170.139,392.188c-0.239-8.925-5.715-15.938-16.068-15.938
	c-8.925,0-16.782,6.426-17.85,15.938H170.139z M192.99,341.484h13.688v73.791c0,1.666,0.118,2.381,2.142,2.381h8.568v11.306h-13.209
	c-8.689,0-11.188-5.591-11.188-13.565V341.484z M253.333,363.739c17.614,0,28.923,13.33,28.923,31.556v7.619h-47.251
	c1.071,9.046,9.521,15.354,20.113,15.354c7.969,0,13.687-4.166,17.85-8.449l8.096,8.076c-6.901,8.689-16.661,12.855-26.899,12.855
	c-16.661,0-32.611-12.023-32.611-33.09C221.554,378.736,235.598,363.739,253.333,363.739 M268.926,392.188
	c-0.239-8.925-5.715-15.938-16.068-15.938c-8.925,0-16.782,6.426-17.85,15.938H268.926z M324.149,363.5
	c15.473,0,24.161,9.282,28.21,19.874l-11.428,4.876c-3.57-8.093-9.282-12.259-16.894-12.259c-10.713,0-18.21,8.45-18.21,21.188
	c0,12.615,7.735,21.184,18.21,21.184c7.736,0,13.448-3.824,18.449-10.838l9.521,6.43c-6.057,10.235-14.045,16.782-28.803,16.782
	c-18.21,0-31.065-14.165-31.065-33.207c0-19.164,12.974-34.04,32.016-34.04 M359.148,396.102h13.212v1.306
	c0,11.795,9.761,19.999,20.234,19.999c10.354,0,19.281-7.969,19.281-19.642v-1.546h13.448c0,0.714,0.118,2.024,0.118,2.978
	c0,18.564-15.829,31.54-33.326,31.54c-17.375,0-33.086-13.33-33.086-32.136C359.016,397.767,359.056,396.932,359.148,396.102
	 M392.237,363.491c16.068,0,28.324,10.353,32.255,25.111h-13.688c-2.977-7.379-9.881-12.02-18.567-12.02
	c-8.686,0-15.472,4.88-18.566,12.02h-13.569C363.838,373.885,377.055,363.559,392.237,363.491 M435.559,365.276h12.499l0.117,12.02
	h0.597c3.809-8.571,10.474-13.805,20.234-13.805c9.639,0,16.304,5.473,19.042,15.472h0.714c3.691-9.881,10.592-15.472,21.188-15.472
	c14.519,0,21.541,11.185,21.541,25.468v40h-13.688v-38.324c0-8.568-3.095-15.115-12.02-15.115c-10.235,0-15.594,8.807-15.594,17.85
	v35.589h-13.687v-38.324c0-10.117-4.045-15.115-11.902-15.115c-10.475,0-15.354,8.568-15.354,17.85v35.589h-13.688V365.276z"/>
</svg>
